<svg xmlns="http://www.w3.org/2000/svg" xmlns:xlink="http://www.w3.org/1999/xlink" width="141" height="72"><defs><path id="a" d="M921.68 1366c8.98 0 16.32 7.35 16.32 16.33v121.34c0 8.98-7.34 16.33-16.32 16.33H675.32a16.37 16.37 0 0 1-16.32-16.33v-121.34c0-8.98 7.34-16.33 16.32-16.33zm-25.15 52.79c0-8.98-7.34-16.33-16.31-16.33h-13.87c-8.98 0-20.25 6.2-25.05 13.79 0 0-13.67 21.58-41.3 21.58-27.64 0-41.3-21.58-41.3-21.58-4.8-7.59-16.08-13.79-25.05-13.79h-13.87a16.37 16.37 0 0 0-16.32 16.33v44.07c0 8.98 7.34 16.33 16.32 16.33h160.44c8.97 0 16.31-7.35 16.31-16.33z"/></defs><use fill="#2e3b4e" xlink:href="#a" transform="translate(-731 -1366)"/></svg>